<?xml version="1.0" encoding="utf-8"?>
<!-- Generator: Adobe Illustrator 27.5.0, SVG Export Plug-In . SVG Version: 6.00 Build 0)  -->
<svg version="1.1" id="Capa_1" xmlns="http://www.w3.org/2000/svg" xmlns:xlink="http://www.w3.org/1999/xlink" x="0px" y="0px"
	 viewBox="0 0 1845 2440" style="enable-background:new 0 0 1845 2440;" xml:space="preserve">
<path style="fill:#412647;" d="M621.902,826.756c0.001,0,0.002-0.001,0.003-0.001c28.63-1.509,95.752-19.067,125.831-31.648
	c-0.043-0.1-0.15-0.154-0.17-0.266c-0.003-0.017-1.166-6.588-3.169-17.095c-0.021-0.109-0.045-0.233-0.065-0.343
	c-1.981,1.234-4.631,2.435-7.911,3.694c-4.491,1.712-10.1,3.471-16.434,5.239c-12.666,3.534-28.225,7.098-43.355,10.285
	c-30.257,6.372-58.786,11.229-58.796,11.231l0,0c-0.781,0.133-1.522-0.392-1.654-1.173c-0.133-0.781,0.392-1.522,1.173-1.655
	c0.014-0.003,5.448-0.928,14.114-2.505c8.665-1.577,20.541-3.803,33.382-6.398c25.668-5.182,55.257-11.868,70.548-17.705
	c3.86-1.461,6.735-2.898,8.342-4.096c-1.947-10.118-4.533-23.13-7.531-37.154c-6.682-31.289-15.416-67.556-23.437-87.088
	c-13.887-33.988-59.764-73.266-70.97-82.434c-1.602-1.316-2.487-2.014-2.489-2.016h0c-0.622-0.491-0.728-1.393-0.237-2.014
	c0.49-0.622,1.392-0.728,2.014-0.237c0.061,0.099,57.815,45.522,74.335,85.613c8.176,19.946,16.88,56.208,23.588,87.578
	c6.701,31.357,11.373,57.764,11.376,57.774c0.129,0.726-0.343,1.376-1.034,1.58c0.576,2.024,1.195,4.202,1.844,6.481
	c0.423,1.486,0.855,3.003,1.296,4.553c-0.001,0-0.001,0-0.001,0c4.768,16.76,10.302,36.214,10.302,36.214s29.4-36.731,81.549-36.731
	c5.116,0,13.042,1.436,22.797,3.85l-0.137-0.05c0,0,153.319-20.958,192.798-13.471c10.589,2.008,22.473,7.243,33.423,13.142
	c0.627-1.842,1.233-3.623,1.815-5.343c27.131,11.702,88.51,28.187,120.522,31.742c0.002,0,0.006,0.001,0.008,0.001
	c9.901,1.099,17.005,0.968,19.386-0.936c0,0,56.049-240.837,8.903-271.884c-27.669-18.221-97.917-40.145-97.917-40.145l-0.003,0.018
	c-66.599-25.735-114.389-37.234-145.736-42.237c0.626,0.654,0.979,0.963,0.979,0.963c-9.988,51.709-78.637,51.709-82.942,51.709
	c-61.074,0-87.557-52.801-89.156-56.109h-3.079c0,0-75.242,22.405-118.1,34.151c-0.084,0.021-4.379,1.109-11.268,3.037
	c-4.302,1.134-8.01,2.076-10.885,2.751c0,0-0.503,0.302-1.176,0.739c-25.175,7.517-64.293,20.681-84.085,35.002
	c-45.735,33.091,8.903,271.884,8.903,271.884C611.179,826.675,615.653,827.086,621.902,826.756z"/>
<path style="fill:#19142E;" d="M708.286,2194.342c-12.459,11.864-31.741,28.943-48.344,38.098
	c-39.071,21.543-43.528,34.924-29.863,55.929c7.809,12.002,136.658,12.147,167.533-16.197c10.282-9.439,9.948-44.33,8.026-70.099
	C785.237,2205.832,739.405,2211.494,708.286,2194.342z"/>
<path style="fill:#19142E;" d="M1065.664,2197.55c-2.207,26.016-3.23,64.617,7.668,74.622
	c30.874,28.344,159.725,28.199,167.533,16.197c13.666-21.005,9.208-34.385-29.863-55.929c-21.372-11.785-47.167-36.676-57.12-46.671
	C1123.929,2198.272,1082.993,2198.238,1065.664,2197.55z"/>
<path style="fill:#428499;" d="M918.732,1378.597c1.396-0.757,3.231-1.796,5.178-3.029c4.033-2.517,8.462-5.982,9.861-8.657
	l0.018-0.049l0.095-0.337c0.076-0.301,0.165-0.732,0.26-1.267c0.189-1.072,0.4-2.561,0.625-4.401
	c0.45-3.683,0.958-8.776,1.503-14.932c1.091-12.315,2.333-28.891,3.599-47.098c1.046-15.041,2.107-31.188,3.114-46.98h-24.811
	L918.732,1378.597z"/>
<path style="fill:#428499;" d="M1099.125,1293.773c17.058,20.848,34.099,22.237,38.682,22.263l0.909-0.023l0.26-0.018h0
	c0.949-0.101,1.801,0.587,1.902,1.537c0.101,0.949-0.587,1.801-1.537,1.903c-0.056,0.006-0.592,0.06-1.535,0.06
	c-1.923,0.009-5.58-0.24-10.288-1.583l24.789,816.159c3.088-1.391,6.05-2.847,8.681-4.45c0.737-0.448,1.697-0.213,2.145,0.523
	c0.448,0.737,0.214,1.698-0.523,2.146c-3.226,1.957-6.859,3.7-10.657,5.338c-0.306,0.372-0.729,0.637-1.248,0.652
	c-0.05,0.002-0.081-0.047-0.131-0.05c-15.427,6.404-34.433,10.431-51.028,12.96c-21.237,3.221-38.394,3.978-38.429,3.98v0.001
	c-0.862,0.038-1.592-0.63-1.63-1.492c-0.039-0.862,0.63-1.592,1.492-1.63c0.011-0.002,4.24-0.187,11.136-0.774
	c6.896-0.587,16.43-1.575,26.962-3.173c16.265-2.458,34.891-6.438,49.814-12.54l-24.833-817.624c-0.012-0.39,0.175-0.714,0.383-1.01
	c-7.917-2.849-18.05-8.773-27.995-20.965c-8.138-9.968-16.132-24.144-22.785-44.116H946.45c-2.456,38.57-5.249,79.345-7.332,100.87
	c-0.672,6.913-1.253,11.792-1.775,14.203c-0.151,0.648-0.244,1.081-0.521,1.625c-2.136,3.846-6.839,7.236-11.061,9.946
	c-4.219,2.671-7.952,4.491-7.987,4.509l-2.476,1.207l-0.583-132.36H758.099c-5.229,11.845-10.745,21.037-16.227,28.069
	c-11.14,14.314-22.159,19.868-29.949,21.92l11.06,857.234c0.002,0.157-0.124,0.259-0.162,0.404
	c27.289,6.689,49.47,8.308,64.137,8.308c9.602,0,16.011-0.666,18.584-0.994c0.858-0.109,1.269-0.178,1.271-0.178h0.001
	c0.851-0.141,1.655,0.435,1.795,1.286c0.141,0.851-0.435,1.656-1.286,1.796c-0.073,0.012-7.368,1.214-20.364,1.215
	c-16.24,0-41.384-1.879-72.457-10.306c-0.833-0.226-1.325-1.084-1.099-1.916c0.225-0.833,1.083-1.325,1.916-1.099
	c1.435,0.389,2.791,0.696,4.2,1.057l-11.045-856.071c-1.869,0.299-3.455,0.395-4.673,0.388c-1.74,0-2.749-0.181-2.841-0.198l0,0
	c-0.939-0.176-1.557-1.079-1.382-2.018c0.176-0.939,1.08-1.557,2.019-1.382l0.095,0.015l0.411,0.049
	c0.375,0.037,0.949,0.076,1.699,0.076c5.404-0.031,19.875-1.93,35.344-21.712c5.072-6.496,10.232-14.992,15.176-25.941h-57.257
	c-1.18,304.561-2.385,934.065,7.754,940.466c1.131,0.714,2.293,1.382,3.469,2.03c31.118,17.152,76.951,11.49,97.353,7.731
	c6.524-1.201,10.477-2.209,10.477-2.209l100.441-811.67l140.797,808.886c0,0,3.107,0.263,8.309,0.47
	c17.329,0.688,58.266,0.722,88.219-11.781c5.163-2.156,10.012-4.668,14.341-7.63c7.915-5.418-15.953-624.665-28.062-926.294H1077.3
	C1083.77,1270.918,1091.443,1284.376,1099.125,1293.773z"/>
<path style="fill:#3B6D77;" d="M1073.662,1251.846c-5.947-17.854-10.815-40.36-13.71-68.836H950.661
	c-1.028,17.427-2.541,42.622-4.211,68.836H1073.662z"/>
<path style="fill:#3B6D77;" d="M774.133,1183.01h-76.782c-0.092,20.328-0.19,43.439-0.289,68.836h0.002h57.257
	C761.799,1235.282,768.762,1212.978,774.133,1183.01z"/>
<path style="fill:#3B6D77;" d="M914.714,1251.846l-0.303-68.836h-136.77c-5.275,29.654-12.108,51.995-19.542,68.836H914.714z"/>
<path style="fill:#3B6D77;" d="M1063.431,1183.01c2.938,28.684,7.883,51.183,13.87,68.836h62.862l0,0
	c-0.658-16.397-1.281-31.828-1.863-46.198c-0.319-7.882-0.625-15.436-0.918-22.638H1063.431z"/>
<path style="fill:#3B6D77;" d="M942.984,1251.846c1.429-22.442,2.746-44.158,3.741-60.902c0.168-2.809,0.322-5.426,0.47-7.934
	H917.87l0.303,68.836H942.984z"/>
<path style="fill:#21525E;" d="M915.298,1384.206l2.476-1.207c0.036-0.018,3.768-1.838,7.987-4.509
	c4.222-2.71,8.926-6.1,11.061-9.946c0.277-0.544,0.37-0.977,0.521-1.625c0.522-2.411,1.103-7.29,1.775-14.203
	c2.083-21.525,4.876-62.301,7.332-100.87c1.67-26.214,3.183-51.409,4.211-68.836h-3.465c-0.148,2.509-0.303,5.125-0.47,7.934
	c-0.995,16.744-2.312,38.46-3.741,60.902c-1.006,15.792-2.067,31.94-3.114,46.98c-1.266,18.206-2.508,34.783-3.599,47.098
	c-0.545,6.156-1.053,11.25-1.503,14.932c-0.225,1.84-0.436,3.329-0.625,4.401c-0.095,0.535-0.184,0.967-0.26,1.267l-0.095,0.337
	l-0.018,0.049c-1.398,2.675-5.827,6.14-9.861,8.657c-1.948,1.233-3.782,2.272-5.178,3.029l-0.558-126.751l-0.303-68.836h-3.459
	l0.303,68.836L915.298,1384.206z"/>
<path style="fill:#21525E;" d="M1096.447,1295.962c9.945,12.192,20.078,18.116,27.995,20.965c-0.208,0.296-0.395,0.62-0.383,1.01
	l24.833,817.624c-14.923,6.102-33.549,10.082-49.814,12.54c-10.532,1.598-20.066,2.586-26.962,3.173
	c-6.896,0.587-11.125,0.773-11.136,0.774c-0.862,0.038-1.53,0.768-1.492,1.63c0.038,0.862,0.767,1.53,1.63,1.492v-0.001
	c0.035-0.002,17.192-0.758,38.429-3.98c16.594-2.529,35.601-6.556,51.028-12.96c0.049,0.003,0.08,0.052,0.131,0.05
	c0.519-0.015,0.943-0.28,1.248-0.652c3.799-1.637,7.431-3.381,10.657-5.338c0.737-0.448,0.971-1.409,0.523-2.146
	c-0.448-0.737-1.409-0.971-2.145-0.523c-2.631,1.603-5.594,3.059-8.681,4.45l-24.789-816.159c4.708,1.344,8.365,1.592,10.288,1.583
	c0.943,0,1.479-0.054,1.535-0.06c0.949-0.101,1.638-0.953,1.537-1.903c-0.101-0.95-0.953-1.638-1.902-1.537h0l-0.26,0.018
	l-0.909,0.023c-4.582-0.025-21.624-1.415-38.682-22.263c-7.683-9.397-15.355-22.855-21.825-41.928
	c-5.987-17.653-10.932-40.152-13.87-68.836h-3.479c2.895,28.476,7.762,50.982,13.71,68.836
	C1080.315,1271.818,1088.309,1285.994,1096.447,1295.962z"/>
<path style="fill:#21525E;" d="M739.145,1277.787c-15.47,19.782-29.941,21.68-35.344,21.712c-0.75,0-1.324-0.04-1.699-0.076
	l-0.411-0.049l-0.095-0.015c-0.939-0.175-1.842,0.443-2.019,1.382c-0.176,0.939,0.443,1.842,1.382,2.018l0,0
	c0.092,0.017,1.101,0.198,2.841,0.198c1.218,0.006,2.804-0.089,4.673-0.388l11.045,856.071c-1.409-0.361-2.765-0.668-4.2-1.057
	c-0.833-0.226-1.69,0.266-1.916,1.099c-0.226,0.832,0.266,1.69,1.099,1.916c31.073,8.427,56.217,10.306,72.457,10.306
	c12.996,0,20.291-1.203,20.364-1.215c0.851-0.14,1.427-0.945,1.286-1.796c-0.14-0.851-0.945-1.427-1.795-1.286h-0.001
	c-0.001,0-0.413,0.069-1.271,0.178c-2.573,0.328-8.981,0.994-18.584,0.994c-14.667,0-36.848-1.619-64.137-8.308
	c0.038-0.145,0.163-0.247,0.162-0.404l-11.06-857.234c7.791-2.051,18.809-7.606,29.949-21.92
	c5.482-7.032,10.998-16.224,16.227-28.069c7.434-16.841,14.267-39.182,19.542-68.836h-3.508
	c-5.371,29.969-12.335,52.273-19.813,68.836C749.377,1262.795,744.217,1271.291,739.145,1277.787z"/>
<path style="fill:#412647;" d="M1159.909,984.575c-0.634,0.742-1.272,1.47-1.917,2.178c-0.784,0.859-1.574,1.693-2.374,2.502
	c-0.736,0.745-1.483,1.455-2.234,2.154c-0.752,0.7-1.505,1.394-2.271,2.047c-0.854,0.728-1.726,1.397-2.598,2.064
	c-0.704,0.537-1.403,1.093-2.118,1.589c-1.032,0.716-2.089,1.345-3.146,1.972c-0.592,0.351-1.172,0.744-1.773,1.065
	c-1.678,0.899-3.381,1.701-5.121,2.36c-1.303,0.495-2.741,0.866-4.24,1.183c-0.318,0.067-0.633,0.137-0.96,0.196
	c-1.516,0.276-3.109,0.482-4.804,0.596c-0.217,0.014-0.449,0.015-0.669,0.027c-1.64,0.089-3.36,0.105-5.153,0.053
	c-0.251-0.008-0.493-0.006-0.746-0.016c-1.973-0.077-4.038-0.24-6.18-0.475c-0.26-0.029-0.526-0.063-0.787-0.095
	c-4.487-0.527-9.32-1.38-14.458-2.529c-0.178-0.04-0.356-0.08-0.535-0.12c-47.834-10.846-121.397-46.786-181.761-79.257
	c-51.955,21.481-129.29,51.744-178.049,62.937c-0.236,0.055-0.464,0.103-0.7,0.156c-1.355,0.308-2.693,0.604-4.002,0.881
	c-0.383,0.081-0.753,0.154-1.131,0.232c-1.137,0.235-2.264,0.464-3.364,0.674c-0.467,0.089-0.92,0.17-1.38,0.255
	c-0.978,0.181-1.946,0.355-2.892,0.514c-0.511,0.087-1.01,0.165-1.512,0.245c-0.868,0.138-1.726,0.269-2.564,0.388
	c-0.516,0.073-1.02,0.141-1.524,0.206c-0.786,0.103-1.56,0.196-2.316,0.28c-0.51,0.056-1.012,0.108-1.508,0.156
	c-0.717,0.069-1.417,0.128-2.105,0.179c-0.485,0.036-0.967,0.069-1.438,0.096c-0.66,0.037-1.299,0.061-1.928,0.08
	c-0.454,0.014-0.91,0.028-1.349,0.032c-0.603,0.005-1.181-0.006-1.753-0.02c-0.419-0.01-0.843-0.017-1.245-0.037
	c-0.552-0.029-1.073-0.077-1.592-0.125c-0.375-0.034-0.76-0.062-1.117-0.107c-0.512-0.065-0.985-0.153-1.462-0.24
	c-0.316-0.057-0.648-0.104-0.948-0.171c-0.494-0.111-0.941-0.25-1.39-0.387c-0.235-0.072-0.493-0.129-0.716-0.209
	c-0.602-0.215-1.154-0.46-1.663-0.73c-0.037-0.02-0.086-0.034-0.123-0.054c-1.023-0.559-2.058-1.256-3.102-2.068
	c-0.445-0.346-0.897-0.795-1.345-1.184c-0.597-0.52-1.191-1.001-1.794-1.595c-0.634-0.623-1.274-1.358-1.913-2.06
	c-0.419-0.462-0.836-0.877-1.257-1.371c-0.782-0.916-1.569-1.936-2.357-2.96c-0.276-0.359-0.55-0.68-0.827-1.052
	c-0.903-1.211-1.809-2.518-2.717-3.857c-0.161-0.238-0.321-0.454-0.482-0.695c-0.242-0.363-0.483-0.711-0.726-1.082
	c1.842,98.062,3.435,182.552,3.956,213.632h13.619h76.782h3.508h136.77h3.459h29.326h3.465h109.291h3.479h73.951l0,0h16.688
	c1.869-5.464,5.702-94.526,9.632-203.136c-0.441,0.581-0.881,1.16-1.327,1.725C1161.563,982.623,1160.739,983.606,1159.909,984.575z
	"/>
<path style="fill:#D98966;" d="M813.304,863.523l-50.505-20.353c0,0-5.534-19.454-10.302-36.214
	c-24.365,12.419-85.073,46.841-106.197,90.983c7.562,19.84,16.003,39.82,24.555,56.027c8.5-10.89,27.652-16.091,48.143-11.869
	c24.274,5.003,41.583,21.407,40.166,37.398c48.006-13.694,111.941-38.836,156.9-57.424
	C858.716,891.221,813.304,863.523,813.304,863.523z"/>
<path style="fill:#B76244;" d="M752.497,806.956C752.497,806.956,752.497,806.956,752.497,806.956
	c-0.44-1.55-0.873-3.067-1.296-4.553c-0.65-2.284-1.267-4.453-1.845-6.481c-0.052,0.016-0.075,0.073-0.128,0.082
	c-0.668,0.118-1.234-0.299-1.492-0.896c-30.079,12.581-97.2,30.139-125.831,31.648c4.96,16,13.796,43.372,24.392,71.188
	C667.419,853.799,728.131,819.376,752.497,806.956z"/>
<path style="fill:#D98966;" d="M918.244,533.797c4.305,0,72.954,0,82.942-51.709c0,0-0.353-0.309-0.979-0.963
	c-4.439-4.633-22.852-26.973-30.557-84.637c0.099,0.743,0.188,1.515,0.29,2.245l0.022,0.171
	c-32.279,55.526-81.114,1.767-103.438-28.471c0.052-0.574,0.097-1.129,0.147-1.697c-3.396,38.716-12.616,92.472-37.661,108.79
	c0,0,0.025,0.056,0.078,0.162C830.687,480.996,857.17,533.797,918.244,533.797z"/>
<path style="fill:#B76244;" d="M969.963,398.904l-0.022-0.171c-0.103-0.73-0.192-1.502-0.29-2.245
	c-0.142-1.076-0.284-2.15-0.419-3.249c-0.05-0.41-0.107-0.8-0.157-1.212l-0.125-1.017c-0.095-0.816-0.176-1.672-0.266-2.5
	c-0.124-1.139-0.25-2.272-0.366-3.435c-0.031-0.312-0.068-0.608-0.098-0.921l-0.126-1.285c-0.087-0.916-0.157-1.875-0.238-2.807
	c-0.101-1.166-0.205-2.322-0.298-3.511c-0.019-0.252-0.044-0.49-0.063-0.743l-0.113-1.501c-0.077-1.092-0.139-2.234-0.21-3.348
	c-0.075-1.159-0.154-2.302-0.22-3.485c-0.01-0.175-0.023-0.34-0.032-0.514c-0.03-0.529-0.057-1.067-0.084-1.602
	c-0.066-1.293-0.113-2.637-0.168-3.956c-0.041-0.965-0.088-1.915-0.123-2.895c-9.993,14.699-24.778,25.025-46.662,25.023
	c-25.038-0.002-41.261-15.464-51.804-35.507c-0.034,0.702-0.069,1.41-0.107,2.137c-0.034,0.656-0.071,1.324-0.108,2
	c-0.049,0.87-0.102,1.759-0.157,2.66c-0.041,0.662-0.079,1.316-0.123,1.995c-0.098,1.506-0.202,3.042-0.318,4.621
	c-0.037,0.512-0.083,1.046-0.122,1.565c-0.089,1.166-0.181,2.341-0.281,3.541c-0.06,0.724-0.126,1.46-0.19,2.195
	c-0.05,0.568-0.095,1.123-0.147,1.697C888.849,400.672,937.684,454.43,969.963,398.904z"/>
<path style="fill:#D98966;" d="M919.882,383.529c21.884,0.002,36.669-10.324,46.662-25.023
	c12.062-17.743,17.118-41.847,19.115-62.002c27.379,4.428,26.888-42.47,18.611-46.603c-4.775-2.39-9.537-0.132-13.57,3.453
	c-1.602,6.024-4.147,13.972-6.827,13.434c-2.971-0.598-0.312-34.026-6.38-40.174c-7.09-7.182-7.738-16.909-8.512-24.262
	c-3.754-2.03-0.653-4.73-4.848-7.587c-4.194-2.858-44.794-11.135-66.473-8.352c-21.68,2.784-27.67,11.388-33.431,12.907h-0.001
	c-0.038,3.72-1.773,15.62-6.642,30.936c-4.618,14.523-4.805,32.838-4.805,32.838s-0.759,1.772-1.771,2.278
	c-1.005,0.503-4.081-9.586-4.126-9.73c-4.448-4.795-10.166-8.61-15.9-5.741c-8.511,4.252-8.787,53.765,21.042,46.095
	c2.692,16.524,7.497,35.767,16.048,52.025c-0.034,0.703-0.068,1.409-0.106,2.138c0.038-0.727,0.073-1.435,0.107-2.137
	C878.621,368.064,894.844,383.526,919.882,383.529z"/>
<path style="fill:#9C5B43;" d="M989.774,285.411c0.032,0.792,0.698,1.408,1.49,1.377c0.791-0.031,1.408-0.698,1.377-1.489
	l-0.01-0.562c-0.012-3.809,1.285-8.295,2.941-12.422c0.297-0.789,0.904-1.302,1.949-1.699c1.045-0.387,2.427-0.533,3.688-0.53
	c0.954,0,1.84,0.076,2.478,0.153c0.638,0.077,1.002,0.15,1.004,0.147c0.777,0.15,1.529-0.359,1.68-1.136
	c0.15-0.777-0.359-1.529-1.136-1.68h0c-0.055-0.009-1.817-0.351-4.025-0.353c-1.121,0.003-2.351,0.151-3.565,0.442
	c1.173-2.402,2.338-4.509,3.218-6.005c0.921-1.565,1.521-2.47,1.521-2.473c0.437-0.66,0.255-1.55-0.405-1.987
	c-0.661-0.436-1.55-0.255-1.987,0.405l0,0c-0.023,0.035-2.549,3.856-5.09,9.128c-0.685,1.429-1.362,2.971-2.004,4.564
	c-0.015,0.041-0.042,0.07-0.056,0.111c-0.005,0.013,0.006,0.025,0.002,0.038c-1.702,4.262-3.067,8.945-3.079,13.296L989.774,285.411
	z"/>
<path style="fill:#9C5B43;" d="M842.052,265.708c-4.198-4.975-8.355-8.391-8.396-8.426c-0.612-0.503-1.516-0.414-2.018,0.197
	c-0.503,0.612-0.415,1.515,0.197,2.019l0,0l0.672,0.575c1.083,0.945,3.356,3.038,5.806,5.737c-0.599-0.104-1.17-0.17-1.691-0.17
	c-3.678-0.023-5.111,2.482-5.176,2.73c-0.336,0.718-0.026,1.571,0.692,1.907c0.707,0.33,1.535,0.025,1.881-0.669l0.011,0.006
	c0.1-0.097,0.56-1.079,2.592-1.106c1.133-0.002,2.847,0.375,5.225,1.591c3.234,4.296,5.912,9.321,5.884,13.727
	c0,1.128-0.164,2.218-0.52,3.275c-0.252,0.75,0.151,1.564,0.901,1.817c0.751,0.253,1.564-0.151,1.817-0.902
	c0.462-1.372,0.669-2.783,0.669-4.19C850.556,277.194,846.226,270.696,842.052,265.708z"/>
<path style="fill:#201823;" d="M894.419,271.878c0-2.813-1.985-5.086-4.432-5.086c-2.447,0-4.431,2.273-4.431,5.086
	c0,2.807,1.984,5.084,4.431,5.084C892.433,276.961,894.419,274.685,894.419,271.878z"/>
<path style="fill:#201823;" d="M957.855,271.874c0-2.813-1.985-5.086-4.432-5.086c-2.448,0-4.431,2.273-4.431,5.086
	c0,2.807,1.983,5.084,4.431,5.084C955.87,276.957,957.855,274.681,957.855,271.874z"/>
<path style="fill:#9C5B43;" d="M923.001,308.077c0.036-0.003,2.752-0.225,5.766-0.867c1.509-0.323,3.091-0.747,4.488-1.335
	c1.386-0.604,2.652-1.309,3.429-2.593c0.416-0.786,0.426-1.456,0.446-2.31c-0.021-3.952-1.872-11.989-3.709-19.287
	c-1.839-7.258-3.675-13.605-3.677-13.614c-0.22-0.761-1.015-1.199-1.776-0.979c-0.761,0.22-1.199,1.015-0.979,1.775h-0.001
	c0.004,0.014,1.827,6.317,3.653,13.522c1.828,7.166,3.642,15.379,3.621,18.582l-0.045,0.741l-0.031,0.147
	c-0.161,0.319-0.917,0.915-2.047,1.373c-1.7,0.722-4.085,1.242-6.004,1.553c-1.923,0.314-3.368,0.431-3.371,0.433
	c-0.789,0.065-1.377,0.758-1.312,1.547C921.52,307.555,922.212,308.142,923.001,308.077z"/>
<path style="fill:#201823;" d="M875.849,253.934c5.188-5.775,13.69-7.765,20.724-4.868c1.551,0.76,3.469-0.025,4.002-1.678
	c1.303-6.258-12.599-5.068-16.155-3.861c-4.635,1.324-8.61,4.319-11.511,7.85c-0.637,0.779-0.582,1.935,0.157,2.644
	C873.852,254.777,875.111,254.736,875.849,253.934z"/>
<path style="fill:#201823;" d="M944.176,249.137c3.235-1.372,7.554-1.793,11.101-0.952c3.708,0.773,7.085,2.91,9.826,5.782
	c0.698,0.725,1.848,0.803,2.639,0.152c0.832-0.683,0.952-1.911,0.268-2.743c-5.894-7.586-16.589-10.817-25.841-7.618
	C938.477,245.018,940.574,250.605,944.176,249.137z"/>
<path style="fill:#D6674C;" d="M888.466,283.789c-6.988,0-12.653,3.634-12.653,8.116c0,4.482,5.665,8.116,12.653,8.116
	c6.988,0,12.654-3.634,12.654-8.116C901.12,287.423,895.455,283.789,888.466,283.789z"/>
<path style="fill:#D6674C;" d="M957.855,280.578c-6.988,0-12.654,3.634-12.654,8.117c0,4.482,5.665,8.116,12.654,8.116
	c6.989,0,12.653-3.634,12.653-8.116C970.508,284.212,964.844,280.578,957.855,280.578z"/>
<path style="fill:#804A38;" d="M968.984,202.353c-0.001,0-0.001-0.001-0.001-0.001c0.774,7.353,1.422,17.079,8.512,24.262
	c6.068,6.148,3.409,39.576,6.38,40.174c2.68,0.539,5.225-7.41,6.827-13.434c0.174-0.654,0.346-1.307,0.496-1.901
	c1-3.957,2.25-27.668,0.891-48.623C988.447,204.801,972.48,204.242,968.984,202.353z"/>
<path style="fill:#804A38;" d="M851.012,265.372c1.012-0.506,1.771-2.278,1.771-2.278s0.187-18.315,4.805-32.838
	c4.869-15.315,6.604-27.216,6.642-30.936c-5.465,1.44-21.47,0.152-23.111,0.014c0.42,21.896,3.298,48.527,5.76,56.282
	c0,0,0.007,0.025,0.007,0.025C846.93,255.786,850.007,265.875,851.012,265.372z"/>
<path style="fill:#201823;" d="M864.23,199.32L864.23,199.32c5.762-1.518,11.752-10.123,33.432-12.907
	c21.68-2.784,62.279,5.493,66.473,8.352c4.194,2.858,1.094,5.558,4.848,7.587c0,0,0,0.001,0.001,0.001
	c3.497,1.889,19.464,2.448,23.105,0.477c0.27-0.146,0.486-0.303,0.61-0.477c1.805-2.527,2.957-30.871-5.464-40.234
	c-8.421-9.364-41.321-22.017-84.089-18.474c-42.769,3.543-58.388,13.919-62.094,21.764c-3.705,7.846-2.331,33.74-0.096,33.912
	c0,0,0.074,0.007,0.164,0.014C842.76,199.472,858.765,200.761,864.23,199.32z"/>
<path style="fill:#9C5B43;" d="M902.993,322.323c0.116,0.052,9.658,4.986,22.346,4.996c6.34,0.001,13.479-1.249,20.537-5.004
	c0.699-0.372,0.964-1.24,0.592-1.939c-0.372-0.699-1.24-0.964-1.939-0.593c-6.58,3.499-13.219,4.667-19.19,4.668
	c-5.967,0.001-11.253-1.175-15.034-2.353c-1.891-0.589-3.404-1.177-4.438-1.614c-0.517-0.219-0.914-0.4-1.178-0.524l-0.382-0.185
	c-0.704-0.363-1.569-0.087-1.932,0.617C902.012,321.095,902.289,321.96,902.993,322.323L902.993,322.323z"/>
<path style="fill:#201823;" d="M918.127,550.748c4.05,0.331,7.944,0.488,11.687,0.488c36.689,0.02,58.839-15.209,71.622-30.446
	c12.8-15.234,16.361-30.4,16.396-30.531c0.181-0.771-0.298-1.542-1.069-1.724c-0.771-0.181-1.542,0.297-1.723,1.068l0,0l-0.162,0.62
	c-0.864,3.154-5.405,17.749-18.061,31.474c-12.669,13.722-33.362,26.654-67.003,26.671c-3.663,0-7.479-0.154-11.454-0.479
	c-41.041-3.359-65.388-18.046-79.55-31.823c-7.079-6.891-11.605-13.566-14.357-18.503c-1.376-2.468-2.309-4.501-2.893-5.907
	c-0.293-0.704-0.498-1.25-0.63-1.616l-0.181-0.53c-0.233-0.757-1.035-1.182-1.792-0.949c-0.757,0.233-1.182,1.035-0.949,1.792
	c0.048,0.155,4.191,13.541,18.802,27.769C851.413,532.352,876.499,547.358,918.127,550.748z"/>
<path style="fill:#201823;" d="M1145.956,1161.175l-455.128-3.192c-0.792-0.005-1.439,0.632-1.444,1.424
	c-0.006,0.792,0.632,1.439,1.424,1.444l455.129,3.192c0.792,0.006,1.439-0.632,1.444-1.424
	C1147.386,1161.827,1146.748,1161.18,1145.956,1161.175z"/>
<path style="fill:#CE7758;" d="M1155.905,861.512c9.342,12.792,10.341,20.309,7.902,22.629c-5.58,5.304-29.208-18.407-29.208-18.407
	s19.5,22.316,20.587,27.622c1.087,5.3-1.552,6.028-5.504,5.946c-3.952-0.083-26.704-17.18-26.704-17.18
	c10.364,9.682,23.887,23.122,19.789,28.605c-4.106,5.498-19.55-7.161-26.729-12.842c12.834,11.12,18.96,21.007,16.551,23.778
	c-4.649,5.349-20.071-6.495-26.869-12.294c12.249,11.716,16.909,18.23,11.237,22.175c-6.787,4.721-49.364-39.789-49.364-39.789
	l-18.923-16.481l-32.233-10.22l-149.292-54.766c-9.755-2.414-17.682-3.85-22.797-3.85c-52.149,0-81.549,36.731-81.549,36.731
	l50.505,20.353c0,0,45.412,27.698,102.76,58.547c53.638,28.854,117.656,60.401,164.826,74.692
	c-3.196-16.199,13.443-34.139,37.993-40.528c22.872-5.95,44.629,0.204,51.635,13.764c11.646-18.623,20.962-42.407,28.214-65.639
	C1189.543,889.619,1173.351,874.773,1155.905,861.512z"/>
<path style="fill:#B76244;" d="M1129.916,833.591c12.201,11.139,20.518,20.43,25.989,27.921
	c17.453,13.266,33.651,28.117,42.838,42.864c8.154-26.13,13.652-51.49,16.823-68.066c-32.012-3.555-93.39-20.04-120.522-31.742
	c-0.583,1.72-1.189,3.5-1.815,5.343C1113.136,820.635,1129.916,833.591,1129.916,833.591z"/>
<path style="fill:#D98966;" d="M1048.669,875.275l18.923,16.481c0,0,42.577,44.51,49.364,39.789
	c5.672-3.945,1.011-10.459-11.237-22.175c6.798,5.798,22.22,17.642,26.869,12.294c2.409-2.771-3.716-12.657-16.551-23.778
	c7.179,5.681,22.624,18.339,26.729,12.842c4.098-5.483-9.425-18.923-19.789-28.605c0,0,22.752,17.097,26.704,17.18
	c3.952,0.083,6.59-0.645,5.504-5.946c-1.087-5.305-20.587-27.622-20.587-27.622s23.628,23.711,29.208,18.407
	c2.44-2.32,1.44-9.837-7.902-22.629c-5.471-7.491-13.789-16.783-25.989-27.921c0,0-16.78-12.956-36.687-23.681
	c-10.951-5.899-22.835-11.134-33.423-13.142c-39.479-7.488-192.798,13.471-192.798,13.471l0.137,0.05l149.292,54.766
	L1048.669,875.275z"/>
<path style="fill:#201823;" d="M749.228,796.004c0.054-0.009,0.077-0.066,0.128-0.082h0.001c0.691-0.204,1.162-0.854,1.034-1.58
	c-0.002-0.01-4.675-26.417-11.376-57.774c-6.708-31.37-15.412-67.631-23.588-87.578c-16.521-40.091-74.274-85.514-74.335-85.613
	c-0.622-0.491-1.524-0.384-2.014,0.237c-0.491,0.621-0.385,1.523,0.237,2.014h0c0.003,0.002,0.888,0.7,2.489,2.016
	c11.205,9.168,57.083,48.447,70.97,82.434c8.021,19.533,16.755,55.8,23.437,87.088c2.997,14.023,5.584,27.036,7.531,37.154
	c-1.607,1.198-4.482,2.635-8.342,4.096c-15.291,5.837-44.88,12.523-70.548,17.705c-12.841,2.594-24.717,4.82-33.382,6.398
	c-8.665,1.578-14.1,2.502-14.114,2.505c-0.781,0.133-1.306,0.874-1.173,1.655c0.132,0.781,0.873,1.306,1.654,1.173l0,0
	c0.01-0.002,28.539-4.859,58.796-11.231c15.13-3.187,30.689-6.751,43.355-10.285c6.334-1.768,11.943-3.527,16.434-5.239
	c3.28-1.259,5.931-2.459,7.911-3.694c0.021,0.11,0.045,0.234,0.065,0.343c2.003,10.507,3.166,17.078,3.169,17.095
	c0.02,0.112,0.127,0.166,0.17,0.266C747.994,795.705,748.56,796.122,749.228,796.004z"/>
<path style="fill:#201823;" d="M1121.704,646.04c-13.149,39.041-33.731,155.609-33.746,155.655c-0.138,0.78,0.383,1.524,1.163,1.662
	c0.779,0.138,1.524-0.383,1.662-1.163c0.003-0.018,1.175-6.641,3.126-17.211c5.34,1.984,23.768,8.72,45.689,15.481
	c26.094,8.036,56.958,16.1,76.667,16.116c4.925-0.003,9.17-0.498,12.558-1.704c0.746-0.267,1.134-1.087,0.868-1.833
	c-0.266-0.746-1.086-1.135-1.832-0.869c-2.896,1.038-6.869,1.54-11.594,1.537c-19.002,0.016-49.865-7.973-75.821-15.989
	c-12.989-4.006-24.776-8.013-33.312-11.018c-6.257-2.203-10.731-3.854-12.693-4.585c6.498-35.047,20.352-106.619,29.982-135.164
	c8.611-25.623,32.309-46,53.945-59.866c10.809-6.937,21.083-12.256,28.647-15.836c3.782-1.79,6.886-3.145,9.041-4.052
	c2.155-0.906,3.344-1.357,3.347-1.358c0.74-0.281,1.113-1.109,0.832-1.849c-0.281-0.741-1.109-1.113-1.849-0.832l0,0
	c-0.058,0.023-19.681,7.47-41.567,21.513C1154.947,598.729,1130.73,619.349,1121.704,646.04z"/>
<path style="fill:#B76244;" d="M680.501,970.46c0.161,0.242,0.321,0.457,0.482,0.695c0.908,1.342,1.814,2.643,2.717,3.857
	c0.276,0.372,0.551,0.693,0.827,1.052c0.788,1.026,1.575,2.042,2.357,2.96c0.421,0.494,0.837,0.909,1.257,1.371
	c0.639,0.704,1.279,1.435,1.913,2.06c0.603,0.594,1.197,1.076,1.794,1.595c0.448,0.39,0.9,0.838,1.345,1.184
	c1.044,0.812,2.079,1.509,3.102,2.068c0.037,0.02,0.086,0.034,0.123,0.054c0.51,0.271,1.061,0.516,1.663,0.73
	c0.223,0.08,0.481,0.137,0.716,0.209c0.449,0.138,0.896,0.276,1.39,0.387c0.3,0.066,0.633,0.113,0.948,0.171
	c0.477,0.087,0.949,0.175,1.462,0.24c0.357,0.045,0.742,0.073,1.117,0.107c0.52,0.048,1.04,0.097,1.592,0.125
	c0.402,0.021,0.827,0.027,1.245,0.037c0.573,0.014,1.15,0.025,1.753,0.02c0.439-0.003,0.894-0.018,1.349-0.032
	c0.63-0.019,1.268-0.042,1.928-0.08c0.471-0.027,0.952-0.06,1.438-0.096c0.688-0.051,1.388-0.11,2.105-0.179
	c0.496-0.048,0.998-0.1,1.508-0.156c0.757-0.084,1.53-0.178,2.316-0.28c0.504-0.065,1.008-0.133,1.524-0.206
	c0.838-0.119,1.695-0.25,2.564-0.388c0.502-0.08,1.001-0.158,1.512-0.245c0.945-0.159,1.914-0.333,2.892-0.514
	c0.46-0.084,0.913-0.165,1.38-0.255c1.1-0.211,2.226-0.439,3.364-0.674c0.379-0.078,0.749-0.151,1.131-0.232
	c1.308-0.277,2.647-0.573,4.002-0.881c0.236-0.053,0.464-0.102,0.7-0.156c6.575-1.51,13.667-3.365,21.149-5.499
	c1.428-15.996-15.884-32.408-40.166-37.411c-20.503-4.224-39.667,0.983-48.159,11.885c1.079,2.046,2.16,4.03,3.241,5.947
	c0.01,0.017,0.019,0.034,0.029,0.052c1.064,1.885,2.128,3.703,3.19,5.447c0.063,0.104,0.127,0.198,0.19,0.302
	C678.495,967.374,679.5,968.957,680.501,970.46z"/>
<path style="fill:#B76244;" d="M1118.884,956.235c-24.567,6.393-41.216,24.356-37.989,40.563c5.93,1.798,11.587,3.316,16.931,4.529
	c0.179,0.04,0.357,0.08,0.535,0.12c5.14,1.151,9.969,2.001,14.458,2.529c0.261,0.031,0.528,0.066,0.787,0.095
	c2.144,0.236,4.206,0.397,6.18,0.475c0.254,0.01,0.495,0.008,0.746,0.016c1.794,0.053,3.513,0.036,5.153-0.053
	c0.22-0.012,0.452-0.013,0.669-0.027c1.696-0.113,3.288-0.321,4.804-0.596c0.326-0.06,0.641-0.129,0.96-0.196
	c1.5-0.317,2.938-0.689,4.24-1.183c1.739-0.659,3.442-1.461,5.121-2.36c0.6-0.321,1.181-0.714,1.773-1.065
	c1.057-0.627,2.113-1.256,3.146-1.972c0.716-0.497,1.415-1.052,2.118-1.589c0.872-0.667,1.743-1.336,2.598-2.064
	c0.766-0.653,1.519-1.346,2.271-2.047c0.751-0.699,1.497-1.409,2.234-2.154c0.8-0.809,1.591-1.642,2.374-2.502
	c0.645-0.708,1.283-1.436,1.917-2.178c0.83-0.971,1.655-1.951,2.465-2.977c0.447-0.564,0.887-1.144,1.327-1.725
	c0.088-0.116,0.173-0.239,0.26-0.356c0.871-1.155,1.74-2.312,2.588-3.526c0.389-0.557,0.766-1.142,1.151-1.711
	c0.947-1.401,1.894-2.805,2.813-4.273c0.002-0.003,0.004-0.006,0.006-0.009v-0.001
	C1163.513,956.438,1141.755,950.284,1118.884,956.235z"/>
</svg>
